<svg width="32" height="32" viewBox="0 0 32 32" fill="none" xmlns="http://www.w3.org/2000/svg">
<path d="M15.9815 2.79775C15.5955 2.79775 15.2094 2.88425 14.9104 3.05725L5.36339 8.57975C4.76526 8.92569 4.76526 9.47288 5.36339 9.81888L14.9104 15.3413C15.5085 15.6873 16.4543 15.6873 17.0524 15.3413L26.5995 9.81881C27.1976 9.47294 27.1976 8.92575 26.5995 8.57981L17.0524 3.05725C16.7533 2.88413 16.3674 2.79775 15.9815 2.79775ZM14.9185 5.45438L16.3458 6.34644C15.9241 6.40936 15.5592 6.4889 15.2511 6.58506C14.9396 6.67906 14.6716 6.79342 14.4471 6.92813C13.9646 7.21771 13.754 7.54673 13.8156 7.91519C13.8737 8.28144 14.2045 8.68061 14.8078 9.11269C14.824 8.89598 14.8988 8.69696 15.0321 8.51563C15.162 8.33213 15.3546 8.16379 15.6099 8.01063C16.2524 7.62504 17.001 7.45879 17.8558 7.51188C18.7135 7.56321 19.5163 7.82269 20.2644 8.29032C21.0918 8.8074 21.5353 9.35429 21.5946 9.931C21.6505 10.5056 21.3081 11.0151 20.5674 11.4596C19.7509 11.9495 18.7803 12.1179 17.6556 11.9649C16.5303 11.8081 15.3454 11.3408 14.1008 10.563C12.8252 9.76575 12.0847 8.98325 11.8791 8.2155C11.673 7.44388 12.0258 6.7845 12.9378 6.23738C13.2268 6.064 13.5349 5.9129 13.8621 5.78406C14.1895 5.65523 14.5416 5.54534 14.9185 5.45438ZM17.3358 8.78125C17.0752 8.78084 16.8376 8.845 16.623 8.97375C16.3396 9.14375 16.2402 9.34281 16.3246 9.57094C16.4084 9.79515 16.6761 10.0484 17.1277 10.3307C17.5793 10.6129 17.989 10.783 18.3568 10.8411C18.724 10.8953 19.0493 10.8374 19.3328 10.6673C19.619 10.4956 19.7202 10.2977 19.6364 10.0734C19.5519 9.84529 19.2839 9.59013 18.8323 9.30788C18.3806 9.02563 17.9712 8.85742 17.604 8.80325C17.5153 8.78905 17.4257 8.78169 17.3358 8.78125ZM27.2417 10.8634C27.1206 10.868 26.9781 10.917 26.807 11.0142L17.6236 16.3171C17.0255 16.6626 16.5523 17.482 16.5523 18.1728V28.0289C16.5523 28.7196 17.0255 28.9926 17.6236 28.6471L26.8071 23.3444C27.4053 22.9989 27.8782 22.1796 27.8782 21.4889V11.6326C27.7221 11.1296 27.5513 10.8517 27.2417 10.8634ZM4.75651 10.8934C4.36733 10.8934 4.12945 11.2262 4.12183 11.6324V21.4885C4.12183 22.1793 4.59495 22.9987 5.19308 23.3441L14.3762 28.6471C14.9743 28.9925 15.4475 28.7194 15.4475 28.0287V18.1724C15.4475 17.4818 14.9744 16.6625 14.3763 16.317L5.19314 11.0141C5.0327 10.9304 4.8862 10.8934 4.75651 10.8934V10.8934ZM7.26245 14.1575L11.5196 16.7118V18.2923L8.6282 16.5574V17.8474C8.76192 17.8821 8.89277 17.927 9.01958 17.9818C9.15299 18.0358 9.29089 18.1055 9.43326 18.1909C10.2428 18.6767 10.8731 19.3098 11.3239 20.0903C11.7746 20.8671 12 21.7098 12 22.6183C12 23.5193 11.7539 24.0772 11.2616 24.2919C10.7723 24.5084 10.0916 24.355 9.21976 23.8319C8.8431 23.6059 8.46943 23.3352 8.09876 23.0196C7.73101 22.7096 7.36476 22.3521 7.00001 21.9471V20.2549C7.36185 20.7326 7.70437 21.1336 8.02758 21.4579C8.35383 21.7839 8.66076 22.0332 8.94839 22.2058C9.36356 22.4549 9.68976 22.5241 9.92701 22.4132C10.1672 22.3005 10.2873 22.0263 10.2874 21.5907C10.2874 21.1513 10.1673 20.733 9.92701 20.3357C9.68976 19.9402 9.36356 19.6179 8.94839 19.3688C8.70115 19.2206 8.43674 19.1032 8.16101 19.0192C7.88226 18.9301 7.58274 18.8733 7.26245 18.8486V14.1575ZM24.1404 14.5158V19.8788L25 19.3631V20.9514L24.1404 21.4672V23.0158L22.6715 23.8971V22.3485L20 23.9514V22.0727L22.4132 15.552L24.1404 14.5158ZM22.6715 17.2019L20.9685 21.7819L22.6715 20.7601V17.2019Z" fill="#FFA500"/>
</svg>
