<svg width="32" height="32" viewBox="0 0 32 32" fill="none" xmlns="http://www.w3.org/2000/svg">
<path d="M23.4677 15.7027L16.5939 18.8988L16.6072 30.3601L29.8131 16.6466L24.3761 15.2835L23.4677 15.7027ZM22.6717 22.4918L22.3 23.4105L19.2622 22.8508L19.5752 22.0488C19.8712 21.8301 20.1532 21.593 20.4196 21.3389C20.7906 20.9994 21.1366 20.6335 21.4549 20.2441C21.7414 19.8873 22.0046 19.5124 22.2428 19.1217C22.4736 18.7656 22.6726 18.3897 22.8374 17.9986L23.7167 18.1555C23.3263 19.0861 22.6937 20.0117 21.8191 20.9324C21.2651 21.5007 20.835 21.889 20.5288 22.0971L22.6717 22.4918ZM7.60018 15.2709L2.30581 16.6311L15.4046 30.375V18.8988L8.533 15.7027L7.60018 15.2709ZM8.79687 18.4491C9.06542 18.4 9.34165 18.4127 9.60454 18.4863C9.86742 18.56 10.11 18.6927 10.3139 18.8743C10.5969 19.1274 10.8342 19.4274 11.0156 19.761L10.198 19.9282C10.1113 19.7575 9.99754 19.6019 9.86125 19.4674C9.6452 19.2642 9.41058 19.1839 9.15737 19.2266L9.12693 19.2325C9.05259 19.2442 8.98299 19.2764 8.92599 19.3255C8.86898 19.3746 8.82684 19.4387 8.80431 19.5105C8.75081 19.6591 8.78943 19.8576 8.91656 20.0962C9.08656 20.4129 9.31177 20.6009 9.59218 20.6604C9.76988 20.6885 9.95121 20.6842 10.1274 20.6477L10.2441 20.6262L10.606 21.3026C10.3394 21.362 10.168 21.4304 10.0916 21.5077C9.95787 21.6385 9.96681 21.8454 10.1184 22.1283C10.2052 22.2996 10.3367 22.4442 10.499 22.5468C10.6354 22.6354 10.8001 22.6696 10.9606 22.6427L10.9866 22.6375C11.1848 22.5973 11.2906 22.4982 11.304 22.3402C11.3203 22.1795 11.2631 21.9813 11.1322 21.7456L11.906 21.5865C12.0196 21.8091 12.1057 22.0447 12.1624 22.2881C12.196 22.484 12.1822 22.6851 12.1223 22.8746C12.0746 23.009 11.9885 23.1266 11.8748 23.2127C11.7247 23.3167 11.5533 23.3858 11.3731 23.4149L11.2987 23.4283C10.9256 23.4919 10.542 23.4327 10.2054 23.2596C9.8252 23.0669 9.51602 22.7585 9.32237 22.3788C9.17125 22.0959 9.117 21.8419 9.15962 21.6169C9.17558 21.499 9.23113 21.39 9.31718 21.3078H9.31275C9.23591 21.3207 9.08925 21.2686 8.87275 21.1517C8.52511 20.9552 8.24403 20.6593 8.0655 20.3021C7.84695 19.8953 7.77858 19.512 7.86037 19.1523C7.94212 18.7925 8.22704 18.5633 8.71512 18.4648L8.79687 18.4491ZM1.69937 15.5541L8.49812 8.28475C8.52777 8.28171 8.55766 8.28171 8.58731 8.28475H8.59693C8.72777 8.29912 8.78698 8.37642 8.77456 8.51663C8.74544 8.69887 8.67502 8.87203 8.56868 9.02287C8.40721 9.27478 8.20118 9.49516 7.96068 9.67319C7.79768 9.7956 7.48427 9.99381 7.02043 10.2678C6.48727 10.5805 6.07998 10.8882 5.79856 11.1909C5.52905 11.4679 5.28799 11.7712 5.079 12.0963L7.13568 12.3312L7.64706 11.521L6.33662 11.3724C6.42884 11.2844 6.5283 11.2043 6.63393 11.133C6.73306 11.0661 6.90898 10.9594 7.16168 10.8127L7.56306 10.5785C7.84676 10.4186 8.11652 10.2351 8.3695 10.03C8.67541 9.77222 8.93921 9.46827 9.15137 9.12912C9.43637 8.67721 9.57166 8.3031 9.55725 8.00681C9.54537 7.76 9.42568 7.60469 9.202 7.53775L14.1894 2.21519L7.80831 13.4387L7.45156 14.0674L1.69937 15.5541ZM24.6517 11.0557C24.4927 10.8283 24.4144 10.6509 24.4169 10.5235C24.4169 10.3964 24.4912 10.3236 24.6399 10.308H24.6755C24.8306 10.3086 24.9816 10.3577 25.1074 10.4484C25.301 10.5837 25.4672 10.7545 25.5972 10.9516C25.7508 11.1716 25.8281 11.3466 25.8291 11.4764C25.8291 11.6073 25.7548 11.6801 25.6106 11.6994H25.5734C25.4163 11.6976 25.2639 11.6455 25.1386 11.5507C24.9469 11.4184 24.7818 11.2512 24.6517 11.0579V11.0557ZM17.8136 2.21069L23.0604 7.81281H22.9861C22.9623 7.81281 22.9251 7.81281 22.8946 7.8195C22.5686 7.85667 22.3952 7.99962 22.3744 8.24837C22.3535 8.49712 22.4583 8.78352 22.6887 9.10756C22.8074 9.27288 22.9407 9.42714 23.0872 9.56844C23.2737 9.7456 23.4878 9.89119 23.7212 9.9995C23.633 10.1199 23.6184 10.2862 23.6773 10.4983C23.7546 10.7474 23.8732 10.9818 24.0281 11.1917C24.2823 11.559 24.6054 11.8733 24.9796 12.1171C25.317 12.3366 25.6517 12.4394 25.9837 12.4256C26.0174 12.4256 26.0511 12.4229 26.0848 12.4174C26.4505 12.3763 26.6427 12.2122 26.6616 11.9254C26.6674 11.8234 26.6576 11.7211 26.6326 11.6221L30.3007 15.5399L24.5774 14.1061L24.1962 13.4372L17.8136 2.21069ZM23.9524 8.76863L24.1055 8.93219C24.1337 8.96781 24.1619 9.0065 24.1902 9.04369C24.3032 9.20569 24.3604 9.341 24.3604 9.45175C24.3604 9.56244 24.2957 9.62563 24.1649 9.6405H24.1329C23.9967 9.6409 23.8637 9.59824 23.7531 9.51863C23.6006 9.41705 23.4694 9.28677 23.3666 9.13506C23.2432 8.95819 23.1831 8.81619 23.1867 8.70919C23.1905 8.60213 23.2566 8.54044 23.3859 8.52563H23.4187C23.553 8.5245 23.6843 8.56558 23.794 8.64306C23.8502 8.68036 23.9032 8.72239 23.9523 8.76869L23.9524 8.76863ZM15.9992 1.625L8.591 14.4391L15.9992 17.8797L23.412 14.4391L15.9992 1.625ZM15.9248 14.6539C15.1944 14.6539 14.6824 14.3983 14.3886 13.8869C14.0947 13.3755 13.9477 12.6466 13.9477 11.7001C13.9477 10.7537 14.0947 10.0236 14.3885 9.50969C14.6823 8.99581 15.1945 8.73865 15.9249 8.73819C16.6553 8.73819 17.1674 8.9951 17.4612 9.50894C17.7551 10.0228 17.902 10.7529 17.902 11.6994C17.902 12.6458 17.7551 13.3747 17.4612 13.8861C17.1674 14.3975 16.6553 14.6534 15.9249 14.6539H15.9248ZM16.5834 10.166C16.6875 10.498 16.7395 11.0094 16.7395 11.7001C16.7395 12.3592 16.6875 12.8634 16.5834 13.2127C16.4793 13.562 16.2598 13.7355 15.9249 13.733C15.5899 13.733 15.3684 13.5596 15.2604 13.2127C15.1524 12.8658 15.0984 12.3616 15.0983 11.7002C15.0983 11.0094 15.1523 10.498 15.2604 10.166C15.3684 9.834 15.5899 9.668 15.9249 9.668C16.2588 9.6675 16.4779 9.83325 16.5819 10.1652L16.5834 10.166Z" fill="#FFA500"/>
</svg>
