<svg width="16" height="16" viewBox="0 0 16 16" fill="none" xmlns="http://www.w3.org/2000/svg">
<path d="M7.99073 1.39888C7.79773 1.39888 7.60469 1.44213 7.45519 1.52863L2.68169 4.28988C2.38263 4.46285 2.38263 4.73644 2.68169 4.90944L7.45519 7.67066C7.75426 7.84366 8.22716 7.84366 8.52619 7.67066L13.2998 4.90941C13.5988 4.73647 13.5988 4.46288 13.2998 4.28991L8.52619 1.52863C8.37666 1.44207 8.18369 1.39888 7.99073 1.39888ZM7.45923 2.72719L8.17291 3.17322C7.96206 3.20468 7.77961 3.24445 7.62557 3.29254C7.4698 3.33954 7.3358 3.39671 7.22357 3.46407C6.98228 3.60886 6.87702 3.77337 6.90779 3.9576C6.93687 4.14072 7.10224 4.34031 7.40388 4.55635C7.41201 4.44799 7.4494 4.34848 7.51607 4.25782C7.58099 4.16607 7.67728 4.0819 7.80494 4.00532C8.12619 3.81253 8.50052 3.7294 8.92791 3.75594C9.35673 3.78161 9.75815 3.91135 10.1322 4.14516C10.5459 4.4037 10.7676 4.67715 10.7973 4.9655C10.8253 5.2528 10.654 5.50757 10.2837 5.72982C9.87544 5.97475 9.39015 6.05897 8.82782 5.98247C8.26517 5.90408 7.6727 5.67042 7.05041 5.2815C6.41262 4.88288 6.04234 4.49163 5.93957 4.10775C5.83649 3.72194 6.01292 3.39225 6.46888 3.11869C6.61338 3.032 6.76744 2.95645 6.93107 2.89204C7.09476 2.82762 7.27081 2.77267 7.45923 2.72719ZM8.66791 4.39063C8.53762 4.39042 8.41881 4.42251 8.31148 4.48688C8.16981 4.57188 8.12008 4.67141 8.16229 4.78547C8.20418 4.89758 8.33804 5.0242 8.56385 5.16535C8.78964 5.30645 8.9945 5.39152 9.17841 5.42054C9.36202 5.44764 9.52467 5.41868 9.66638 5.33366C9.80949 5.24783 9.86009 5.14884 9.81819 5.03669C9.77597 4.92265 9.64194 4.79507 9.41613 4.65394C9.1903 4.51282 8.98559 4.42871 8.80201 4.40163C8.75766 4.39453 8.71283 4.39085 8.66791 4.39063ZM13.6209 5.43169C13.5603 5.434 13.489 5.45851 13.4035 5.5071L8.81179 8.15857C8.51273 8.33129 8.27616 8.74101 8.27616 9.08638V14.0145C8.27616 14.3598 8.51273 14.4963 8.81179 14.3235L13.4036 11.6722C13.7026 11.4995 13.9391 11.0898 13.9391 10.7444V5.81632C13.8611 5.56482 13.7757 5.42585 13.6209 5.43169ZM2.37826 5.44669C2.18366 5.44669 2.06473 5.6131 2.06091 5.81622V10.7443C2.06091 11.0896 2.29748 11.4993 2.59654 11.6721L7.1881 14.3236C7.48716 14.4963 7.72376 14.3597 7.72376 14.0143V9.08622C7.72376 8.74088 7.48719 8.33125 7.18813 8.1585L2.59657 5.50704C2.51635 5.46522 2.4431 5.44672 2.37826 5.44672V5.44669ZM3.63123 7.07876L5.75979 8.35591V9.14613L4.3141 8.27869V8.92369C4.38096 8.94104 4.44638 8.96351 4.50979 8.99091C4.5765 9.01791 4.64544 9.05276 4.71663 9.09547C5.12142 9.33835 5.43653 9.65491 5.66194 10.0452C5.88732 10.4336 6.00001 10.8549 6.00001 11.3092C6.00001 11.7597 5.87694 12.0386 5.63082 12.1459C5.38613 12.2542 5.04582 12.1775 4.60988 11.9159C4.42155 11.803 4.23472 11.6676 4.04938 11.5098C3.86551 11.3548 3.68238 11.1761 3.50001 10.9736V10.1274C3.68092 10.3663 3.85218 10.5668 4.01379 10.7289C4.17691 10.892 4.33038 11.0166 4.47419 11.1029C4.68178 11.2275 4.84488 11.262 4.96351 11.2066C5.08361 11.1502 5.14367 11.0132 5.14369 10.7953C5.14369 10.5757 5.08363 10.3665 4.96351 10.1678C4.84488 9.9701 4.68178 9.80895 4.47419 9.68441C4.35058 9.61032 4.21837 9.55161 4.08051 9.5096C3.94113 9.46506 3.79137 9.43663 3.63123 9.42432V7.07876ZM12.0702 7.25788V9.93941L12.5 9.68154V10.4757L12.0702 10.7336V11.5079L11.3358 11.9486V11.1743L10 11.9757V11.0363L11.2066 7.776L12.0702 7.25788ZM11.3358 8.60094L10.4843 10.8909L11.3358 10.3801V8.60094Z" fill="black"/>
</svg>
