<svg width="16" height="16" viewBox="0 0 16 16" fill="none" xmlns="http://www.w3.org/2000/svg">
<path d="M7.34718 6.1325L7.88074 5.21178V6.1325H7.34718ZM15.2172 14.25H0.782806L7.99999 1.75L15.2172 14.25ZM4.00996 12.5365L5.29784 11.8195L5.0884 11.4422L3.22281 12.4829L3.39337 12.7893C3.41968 12.7767 3.44744 12.7675 3.47603 12.7618C3.53296 12.747 3.5926 12.7461 3.64996 12.7591C3.72725 12.7797 3.79639 12.8234 3.84809 12.8844C3.90664 12.9569 3.95962 13.0337 4.00656 13.1142L4.25637 12.9749L4.00996 12.5365ZM8.53356 6.1325H8.29168V4.79706H7.81999L7.03437 6.09441V6.46156H7.88037V6.92156H8.29168V6.46156H8.53356V6.13287V6.1325ZM12.6467 12.7716C12.7888 12.523 12.7952 12.2966 12.6659 12.0923C12.598 11.9854 12.4868 11.8839 12.3323 11.7878L12.1297 12.1421C12.2079 12.1858 12.2772 12.244 12.3338 12.3135C12.3937 12.4008 12.3919 12.4999 12.3285 12.6108C12.3107 12.6471 12.2847 12.6788 12.2526 12.7035C12.2206 12.7281 12.1833 12.7451 12.1437 12.7531C12.0628 12.7661 11.98 12.7495 11.9104 12.7063C11.8111 12.6474 11.7388 12.5519 11.7093 12.4403C11.6733 12.2843 11.6493 12.1259 11.6376 11.9663C11.6102 11.6936 11.5496 11.4959 11.4557 11.3731C11.3732 11.2533 11.2655 11.1528 11.1403 11.0788L10.4128 12.3508L10.7339 12.5346L11.1972 11.7248C11.2223 11.7693 11.24 11.8176 11.2497 11.8678C11.2595 11.9181 11.2706 12.0076 11.2829 12.1361L11.3029 12.3414C11.3116 12.4784 11.3402 12.6134 11.3878 12.7421C11.4457 12.8832 11.5499 13.0005 11.6833 13.0746C11.8624 13.177 12.0395 13.2012 12.2146 13.1474C12.3897 13.0935 12.5336 12.9684 12.6463 12.7719L12.6467 12.7716Z" fill="black"/>
</svg>
