<svg width="16" height="16" viewBox="0 0 16 16" fill="none" xmlns="http://www.w3.org/2000/svg">
<path d="M14.0678 5.66732L11.8652 2.63407L8.30091 1.47891V4.37429L11.3129 6.56276L14.0678 5.66732ZM11.2097 4.77932C11.1914 4.85335 11.1596 4.92335 11.1158 4.98576C11.0727 5.04609 11.0171 5.09644 10.9528 5.13342C10.8885 5.17039 10.817 5.19311 10.7432 5.20004C10.5859 5.21916 10.4221 5.1665 10.2516 5.04204C10.0812 4.91758 9.9812 4.77759 9.95166 4.62207C9.93602 4.54973 9.93607 4.47488 9.95183 4.40257C9.96758 4.33025 9.99866 4.26216 10.043 4.20288C10.0891 4.14228 10.1461 4.09073 10.211 4.05082C10.2823 4.00486 10.3763 3.98846 10.4931 4.00163C10.4444 3.90046 10.4258 3.78743 10.4394 3.67597C10.4547 3.56482 10.498 3.45939 10.5654 3.36966C10.6148 3.30015 10.6784 3.24194 10.7521 3.19889C10.8257 3.15584 10.9076 3.12894 10.9924 3.11997C11.1723 3.09689 11.3575 3.15491 11.548 3.29404C11.7386 3.43314 11.8461 3.58889 11.8707 3.76129C11.8838 3.84446 11.8799 3.9294 11.8593 4.01104C11.8388 4.09268 11.802 4.16933 11.7511 4.23641C11.6861 4.32802 11.5984 4.40121 11.4966 4.44882C11.3974 4.49505 11.286 4.50811 11.1788 4.48607C11.2212 4.59984 11.2315 4.69759 11.2097 4.77932ZM10.8743 4.52035C10.8788 4.55454 10.8763 4.58927 10.8671 4.62249C10.8579 4.65571 10.8421 4.68674 10.8207 4.71376C10.7878 4.75493 10.7439 4.78593 10.6941 4.80315C10.6443 4.82037 10.5907 4.82311 10.5394 4.81105C10.4881 4.79899 10.4413 4.77263 10.4044 4.73502C10.3675 4.69741 10.3421 4.6501 10.331 4.5986C10.3272 4.56313 10.3305 4.52726 10.3407 4.49309C10.351 4.45892 10.3679 4.42715 10.3906 4.39963C10.4096 4.37093 10.4341 4.34627 10.4627 4.32708C10.4913 4.30789 10.5234 4.29455 10.5572 4.28782C10.5929 4.28269 10.6293 4.28511 10.664 4.29493C10.6988 4.30476 10.731 4.32176 10.7588 4.34485C10.7895 4.36435 10.8159 4.39007 10.8361 4.42036C10.8563 4.45065 10.87 4.48484 10.8762 4.52072L10.8743 4.52035ZM11.1724 4.15254C11.0912 4.16014 11.0099 4.13785 10.9439 4.08983C10.8779 4.04182 10.8317 3.97138 10.8139 3.89173C10.8025 3.81445 10.8286 3.73222 10.8922 3.64504C10.9394 3.5701 11.014 3.5166 11.1001 3.49598C11.1821 3.4879 11.2642 3.5103 11.3307 3.55889C11.3973 3.60748 11.4436 3.67886 11.4608 3.75941C11.4677 3.84735 11.44 3.93451 11.3837 4.00238C11.3223 4.08984 11.253 4.1399 11.1758 4.15257L11.1724 4.15254ZM7.70469 4.37429V1.47891L4.14044 2.63407L1.93781 5.66732L4.69269 6.56163L7.70469 4.37429ZM4.18406 3.6931L5.36828 2.86435C5.44903 2.98324 5.50295 3.11828 5.52628 3.2601C5.55857 3.40916 5.52951 3.61138 5.43909 3.86676C5.38222 4.01432 5.33687 4.16606 5.30344 4.32063C5.28274 4.43276 5.30697 4.54852 5.37087 4.64294C5.41484 4.71072 5.4818 4.76035 5.55944 4.78269C5.59799 4.79203 5.63816 4.79245 5.6769 4.78392C5.71564 4.7754 5.75193 4.75816 5.783 4.73351C5.88635 4.66121 5.92971 4.5734 5.91306 4.47007C5.89127 4.38408 5.85334 4.30302 5.80128 4.23119L6.13181 4.00016C6.22919 4.1512 6.2857 4.2887 6.30134 4.41266C6.33141 4.64866 6.23055 4.8474 5.99878 5.00888C5.81568 5.13707 5.63457 5.18825 5.45547 5.16241C5.27636 5.13658 5.1283 5.04031 5.01128 4.8736C4.92329 4.75128 4.87954 4.60265 4.88722 4.45216C4.90031 4.3172 4.93308 4.18489 4.98447 4.05941L5.05303 3.86751C5.09601 3.74751 5.12371 3.66292 5.13613 3.61376C5.14856 3.56511 5.1531 3.51478 5.14956 3.46469L4.39456 3.99307L4.18406 3.6931ZM6.20594 10.4247H9.79963L10.9093 7.00691L8.00278 4.89447L5.09625 7.00694L6.20594 10.4247ZM8.9955 7.45372C8.96923 7.42369 8.93643 7.40007 8.8996 7.38469C8.86278 7.36932 8.82292 7.3626 8.78309 7.36504C8.65689 7.36504 8.57105 7.41212 8.52559 7.50629C8.49361 7.58947 8.47781 7.67799 8.47903 7.7671H8.07731C8.08402 7.58752 8.11656 7.44244 8.17494 7.33188C8.28575 7.12121 8.48251 7.01588 8.76522 7.01588C8.98878 7.01588 9.16652 7.07799 9.29844 7.20219C9.43035 7.3264 9.49532 7.48925 9.49334 7.69072C9.4952 7.84135 9.44579 7.98813 9.35322 8.10698C9.26624 8.21097 9.16456 8.30172 9.05138 8.37635L8.88519 8.49413C8.7811 8.56865 8.70994 8.62206 8.67169 8.65435C8.6334 8.68727 8.60069 8.72615 8.57481 8.76951H9.49631V9.13466H8.05234C8.05443 8.99098 8.08775 8.84946 8.15 8.71994C8.20912 8.57932 8.34885 8.43026 8.56919 8.27276C8.70078 8.18448 8.82537 8.08619 8.94184 7.97876C9.02304 7.89878 9.06961 7.79014 9.07153 7.67619C9.07395 7.59517 9.04694 7.51602 8.9955 7.45338V7.45372ZM6.50778 7.3971C6.59972 7.39531 6.6914 7.38659 6.78203 7.37101C6.85968 7.35542 6.93069 7.3164 6.9855 7.25922C7.02421 7.21595 7.05207 7.16409 7.06675 7.10791C7.07561 7.0805 7.08098 7.05208 7.08275 7.02332H7.42931V9.13394H7.00413V7.67916H6.50781V7.39673L6.50778 7.3971ZM6.13963 11.0209L4.43856 13.3659L8.00278 14.5211L11.567 13.3659L9.86597 11.0209H6.13963ZM8.55431 13.6394C8.43681 13.79 8.25434 13.8651 8.00691 13.8649C7.74107 13.8649 7.54506 13.7537 7.41888 13.5314C7.32075 13.3575 7.27169 13.1339 7.27169 12.8606C7.27008 12.7293 7.27693 12.598 7.29219 12.4675C7.30941 12.3106 7.35741 12.1587 7.43344 12.0203C7.49151 11.9206 7.57264 11.8363 7.67003 11.7744C7.77521 11.7102 7.89675 11.6778 8.01994 11.6813C8.21594 11.6813 8.37219 11.7309 8.48869 11.8303C8.5466 11.8806 8.59382 11.942 8.62756 12.0109C8.6613 12.0797 8.68086 12.1547 8.68509 12.2313H8.27369C8.27155 12.191 8.25798 12.1523 8.23456 12.1195C8.21232 12.0868 8.18198 12.0605 8.1465 12.0431C8.11103 12.0258 8.07165 12.0179 8.03222 12.0203C7.89734 12.0203 7.80133 12.096 7.74419 12.2473C7.70641 12.3671 7.68485 12.4914 7.68009 12.6169C7.72798 12.5585 7.78937 12.5126 7.85897 12.4832C7.97668 12.4389 8.10463 12.4294 8.22758 12.4558C8.35054 12.4823 8.46329 12.5435 8.55241 12.6322C8.67431 12.7647 8.73888 12.9401 8.73203 13.12C8.73431 13.3081 8.67211 13.4913 8.55578 13.6391L8.55431 13.6394ZM8.21894 12.8703C8.27904 12.9359 8.30909 13.0303 8.30909 13.1535C8.31344 13.2499 8.28551 13.345 8.22972 13.4237C8.20462 13.4574 8.17169 13.4845 8.13377 13.5026C8.09586 13.5207 8.05411 13.5293 8.01213 13.5277C7.96767 13.5286 7.92359 13.5194 7.88323 13.5007C7.84288 13.4821 7.8073 13.4544 7.77922 13.42C7.71672 13.3413 7.68493 13.2427 7.68978 13.1423C7.68978 13.0017 7.73052 12.8999 7.812 12.8368C7.86495 12.7948 7.93071 12.7721 7.99831 12.7727C8.04029 12.7718 8.08198 12.7799 8.12047 12.7967C8.15895 12.8135 8.19331 12.8385 8.22116 12.8699L8.21894 12.8703ZM11.9423 9.36422L12.8135 9.62507L12.6644 10.13L11.9423 9.36422ZM11.4951 7.12841L10.3448 10.6684L12.0474 13.0119L14.25 9.98019V6.23448L11.4951 7.12841ZM13.5599 9.84566L13.1247 9.7156L12.8854 10.516L12.5381 10.4124L11.532 9.30235L11.6654 8.85519L12.929 9.23269L12.9972 9.00388L13.3083 9.09669L13.2402 9.32544L13.6754 9.45551L13.5599 9.84566ZM4.50488 7.12841L1.75 6.2341V9.98204L3.95263 13.0138L5.65519 10.6703L4.50488 7.12841ZM2.26688 8.94501L3.65531 8.50751L3.50625 8.03429L3.77566 7.94932C3.805 8.03648 3.84089 8.12131 3.883 8.20307C3.92087 8.27232 3.97898 8.32837 4.04956 8.36369C4.10248 8.38763 4.16034 8.39863 4.21834 8.39576C4.2471 8.39599 4.27577 8.3926 4.30369 8.38569L4.40766 8.71619L2.39544 9.34969L2.26688 8.94501ZM2.84406 10.7761L2.71625 10.3707L4.10469 9.93322L3.95563 9.45997L4.22506 9.37504C4.25445 9.46218 4.29033 9.547 4.33238 9.62879C4.37019 9.69808 4.42832 9.75413 4.49894 9.78941C4.55185 9.8134 4.60973 9.82439 4.66775 9.82144C4.6965 9.82167 4.72516 9.81829 4.75306 9.81138L4.85706 10.1419L2.84406 10.7761Z" fill="black"/>
</svg>
