<svg width="16" height="16" viewBox="0 0 16 16" fill="none" xmlns="http://www.w3.org/2000/svg">
<path d="M8 1.16072L2.43425 10.7454H13.5658L8 1.16072ZM7.19231 1.55594L2.25 5.13228V10.067L7.19231 1.55594ZM8.80762 1.55594L13.75 10.067V5.13225L8.80762 1.55594ZM4.6665 4.36906V5.04988L4.40131 5.35238V4.82294C4.31469 4.92419 4.22344 5.02191 4.13928 5.12494C4.24978 5.1341 4.21691 5.29463 4.20825 5.36719C4.15369 5.66519 3.95344 5.91641 3.78938 6.14188C3.72866 6.22138 3.66616 6.30047 3.60162 6.37647C3.45631 6.48272 3.33631 6.51366 3.26491 6.33075C3.27409 6.08681 3.38491 5.85513 3.51634 5.67553L3.68159 5.4281C3.68009 5.50503 3.68472 5.58341 3.67934 5.6595C3.60622 5.79535 3.46791 5.95513 3.49941 6.116C3.74191 6.14331 3.88128 5.77653 3.95322 5.59788C3.97922 5.51163 4.01909 5.42731 3.90891 5.42806V5.20106L4.6665 4.36906ZM11.2956 4.40688L12.6972 6.10888V6.33581L11.7502 5.20113V5.46588L11.5608 5.23894C11.556 5.10925 11.5163 4.97716 11.4851 4.86072C11.4269 4.76897 11.3613 4.68247 11.2957 4.59603L11.2956 4.40688ZM8.00219 6.37063C8.26375 6.37063 8.46258 6.41841 8.59869 6.51397C8.73479 6.60855 8.80284 6.74755 8.80284 6.93097C8.80284 7.0536 8.76906 7.15592 8.7015 7.23794C8.63492 7.32 8.53598 7.38081 8.40469 7.42038C8.55135 7.46094 8.66187 7.52709 8.73625 7.61881C8.81152 7.70948 8.84917 7.82431 8.84919 7.96331C8.84919 8.17759 8.77775 8.33977 8.63488 8.44988C8.493 8.55892 8.2821 8.61343 8.00219 8.61341C7.72129 8.61341 7.50894 8.55889 7.36513 8.44985C7.22225 8.33978 7.15081 8.1776 7.15081 7.96328C7.15081 7.82432 7.188 7.70949 7.26237 7.61878C7.33762 7.52705 7.44861 7.46091 7.59534 7.42035C7.46409 7.38082 7.36517 7.32002 7.29856 7.23794C7.23198 7.1559 7.19867 7.05359 7.19863 6.931C7.19867 6.74859 7.26673 6.6096 7.40281 6.51403C7.5389 6.41847 7.73869 6.3707 8.00219 6.37072V6.37063ZM8.00219 6.721C7.91342 6.721 7.84488 6.74418 7.79656 6.79053C7.74927 6.83687 7.72563 6.90249 7.72563 6.98741C7.72563 7.07335 7.74927 7.13947 7.79656 7.18578C7.84488 7.23214 7.91342 7.25531 8.00219 7.25531C8.08906 7.25531 8.15615 7.23214 8.20344 7.18578C8.25073 7.13947 8.27437 7.07336 8.27437 6.98744C8.27437 6.90152 8.25073 6.8359 8.20344 6.79056C8.15615 6.74419 8.08906 6.721 8.00219 6.721ZM8.00219 7.60419C7.89792 7.60419 7.81781 7.63267 7.76188 7.68963C7.70583 7.74659 7.67781 7.82815 7.67781 7.93431C7.67781 8.0405 7.70583 8.12206 7.76188 8.179C7.81781 8.235 7.89792 8.263 8.00219 8.263C8.10546 8.263 8.1846 8.23501 8.23962 8.17903C8.29462 8.12203 8.32213 8.04045 8.32213 7.93428C8.32213 7.82716 8.29462 7.7456 8.23962 7.6896C8.18462 7.63264 8.10548 7.60416 8.00219 7.60416V7.60419ZM2.77187 11.2454L8 15.0285L13.2281 11.2454H2.77187ZM7.12875 11.9713H8.83337V12.1226C8.38319 12.3083 8.15894 12.5257 7.96212 12.9169H7.46962C7.69162 12.4855 7.92419 12.3633 8.30306 12.1226H7.12869L7.12875 11.9713Z" fill="black"/>
</svg>
