<svg width="16" height="16" viewBox="0 0 16 16" fill="none" xmlns="http://www.w3.org/2000/svg">
<path d="M7.75 0.634369L2.26031 4.14374L7.75 4.02499V0.634369ZM8.25 0.634369V4.02499L13.7406 4.14374L8.25 0.634369ZM9.85625 2.47499C10.0469 2.58437 10.1125 2.69999 10.3281 2.60624C10.6625 2.63124 11.025 2.78749 11.1906 3.09687C11.3375 3.23749 11.2375 3.49062 11.0281 3.49062C10.725 3.49374 10.4125 3.29999 10.5719 3.23124C10.7187 3.16874 11.0312 3.25937 10.8844 3.05937C10.7719 2.91874 10.5406 2.81562 10.375 2.87499C10.325 3.08749 10.0812 2.99999 10 2.85312C9.92813 2.67187 9.71563 2.59687 9.53125 2.60624C9.34063 2.69062 9.58125 2.88124 9.69687 2.91562C9.94375 2.98437 9.70313 3.14999 9.56875 3.07499C9.4375 2.99999 9.1 2.77499 9.14688 2.50312C9.32813 2.27218 9.64062 2.35874 9.85625 2.47499ZM6.46562 2.36562C6.6375 2.38124 6.85 2.45937 6.78438 2.67499C6.65 2.89374 6.47813 3.08437 6.21875 3.13749C6.01562 3.24374 5.75312 3.27499 5.54375 3.19687C5.42812 3.12499 5.12187 2.90624 5.07812 3.09062C5.0125 3.55312 5.1 3.49999 4.73125 3.64687V2.88437C5.04062 2.76249 5.39062 2.74374 5.67812 2.92499C5.92812 3.05624 6.28437 2.97187 6.43437 2.74687C6.47812 2.54374 6.18125 2.60312 6.05312 2.64062C5.96875 2.38437 6.3 2.40624 6.46562 2.36562ZM7.55937 4.52812L1.73094 4.65624L3.95625 10.6844L7.55937 4.52812ZM8.44063 4.52812L12.0437 10.6844L14.2688 4.65624L8.44063 4.52812ZM8 4.76249L4.34062 11.0187H11.6594L8 4.76249ZM12.1656 5.42187C12.6 5.68124 12.8375 6.24062 12.8562 6.76562C12.8156 7.19062 12.8344 7.38437 12.3813 7.43437C11.9281 7.48437 11.6344 6.83437 11.4531 6.41562C11.3469 6.10624 11.2719 5.66562 11.5063 5.43749C11.6969 5.28749 11.975 5.30937 12.1656 5.42187ZM5.175 5.92499C5.24063 6.04999 5.15938 6.28124 5.025 6.30312C4.87188 6.32499 4.90625 6.01249 4.73125 5.94062C4.51562 5.86874 4.30625 6.11562 4.2625 6.30312C4.5875 6.17812 4.89687 6.52499 4.89687 6.83437C4.88437 7.19999 4.65 7.60937 4.28125 7.71249H4.10625C3.70937 7.69062 3.53437 7.21874 3.6625 6.88124C3.8 6.38749 4 5.82187 4.5125 5.61249C4.77812 5.49062 5.10625 5.71249 5.175 5.92499ZM11.8594 5.66249C11.6375 5.65937 11.7219 5.97499 11.7563 6.11562C11.8656 6.47499 11.9844 6.94687 12.3469 7.05312C12.5594 7.01562 12.4844 6.65312 12.4625 6.53749C12.3156 6.19687 12.2406 5.80937 11.8594 5.66249ZM1.625 5.81249V11.225L3.55938 11.0469L1.625 5.81249ZM14.375 5.81249L12.4406 11.0469L14.375 11.225V5.81249ZM10.6906 5.83437L11.5813 7.81874L11.2688 7.95624L10.6438 6.60312C10.4531 6.69687 10.2375 6.88124 10.1875 6.55937C10.1469 6.43749 10.4531 6.39999 10.4406 6.18749C10.4313 5.97187 10.5094 5.80624 10.6906 5.83437ZM4.06563 6.69062C3.99063 6.84999 3.9375 7.01249 3.98125 7.18749C4.03438 7.46249 4.40313 7.38749 4.46875 7.16249C4.55313 7.00624 4.59063 6.79687 4.45312 6.67187C4.325 6.56562 4.175 6.58437 4.06563 6.69062ZM14.3281 7.99062C14.325 8.57187 14.3625 9.21562 14.025 9.71874C13.9969 9.75624 13.9563 9.77812 13.9094 9.79687C13.7281 9.66874 13.8156 9.44374 13.9469 9.31249C13.9781 9.54062 14.1187 9.22187 14.1531 9.13749C14.1937 9.03749 14.2656 8.58437 14.1219 8.81874C14.1437 8.94374 13.9094 9.22812 13.8313 9.07187C13.675 8.62187 13.8313 8.11874 14.05 7.71249C14.2281 7.51874 14.3594 7.84999 14.3281 7.99062ZM1.87281 7.67187C1.89125 7.67499 1.91469 7.70312 1.95031 7.78437V9.69374C1.72219 9.47499 1.81062 9.13124 1.81125 8.86874C1.81125 8.60624 1.86281 8.35937 1.77125 8.14374C1.62688 8.09062 1.59031 7.61249 1.67219 7.74687C1.81 7.89687 1.81781 7.66249 1.87281 7.67187ZM7.45937 7.90937C7.7125 8.04999 7.89062 8.35937 7.79688 8.64687C7.73125 9.12187 6.95313 9.30624 6.84688 9.57499C6.80938 9.66874 7.64063 9.62499 7.79063 9.62499C7.80625 9.74999 7.8375 9.95937 7.67188 9.99062C7.21875 9.95312 6.7375 9.97187 6.2625 9.97187C6.275 9.62187 6.49375 9.30624 6.79375 9.13437C7.00937 8.98124 7.275 8.84374 7.35938 8.57499C7.41562 8.43437 7.34062 8.28437 7.21562 8.21562C7.08437 8.12499 6.87187 8.14374 6.80312 8.29999C6.74062 8.41874 6.66563 8.58437 6.53125 8.59999C6.44062 8.61249 6.25 8.61562 6.30625 8.44687C6.35 8.27187 6.4125 8.08749 6.5625 7.97187C6.8375 7.77499 7.18437 7.76249 7.45937 7.90937ZM9.125 7.86562C9.3375 7.93437 9.5 8.11249 9.57187 8.32187C9.7625 8.78124 9.74375 9.35624 9.43437 9.75624C9.29375 9.90624 9.11562 10.0406 8.90312 10.0406C8.5125 10.0375 8.20313 9.69374 8.12813 9.32812C8.03125 8.90937 8.07188 8.43124 8.34375 8.08437C8.55625 7.84687 8.84375 7.76249 9.125 7.86562ZM14.0031 8.11874C13.9531 8.30312 13.9 8.53749 13.9812 8.72187C14.1406 8.65937 14.15 8.42187 14.1875 8.26874C14.2156 8.07812 14.0781 7.87499 14.0031 8.11874ZM8.49687 8.77812C8.51562 9.10624 8.55 9.49062 8.8 9.65937C8.95313 9.71562 9.10313 9.59062 9.14688 9.44999C9.20625 9.25312 9.21875 9.04687 9.22188 8.84374C9.21563 8.62187 9.175 8.37499 9.0125 8.21562C8.63125 8.07812 8.53437 8.55624 8.49687 8.77812ZM13.5625 8.33749V10.25L13.425 10.4594V9.13749C13.2813 9.37187 13.1406 9.42187 13.2344 9.10937C13.425 8.88749 13.3844 8.56562 13.5625 8.33749ZM2.62031 8.71874C2.64531 8.83124 2.78031 9.27499 2.68406 9.18124C2.6225 9.14062 2.57094 9.02812 2.5775 8.99062C2.52906 8.89687 2.485 8.79999 2.44594 8.70312C2.35375 8.82812 2.32219 8.96249 2.34781 9.12187C2.35406 9.07187 2.38469 9.04999 2.45375 9.09999C2.69875 9.49374 2.83406 10.0094 2.68156 10.4594L2.61219 10.4937C2.28844 10.3125 2.25594 9.88749 2.1925 9.55624C2.14406 9.17187 2.16781 8.78437 2.26437 8.40937C2.42687 8.29062 2.55062 8.57812 2.62031 8.71874ZM2.4 9.34999C2.27313 9.49687 2.32937 9.74999 2.38812 9.92499C2.42281 10.0969 2.60438 10.2437 2.5775 9.97499C2.59906 9.62812 2.50469 9.57812 2.4 9.34999ZM4.475 11.5187L8 15.3656L11.525 11.5187H4.475ZM3.80625 11.5281L2.12375 11.6812L4.13125 12.9656C4.05 12.8812 3.97812 12.7875 3.90937 12.6906C3.74687 12.475 3.58125 12.2656 3.31875 12.1719C3.04531 11.9687 3.1875 12.0062 3.40937 12.0906C3.37812 12.0344 3.3875 12.0094 3.4125 12.0094C3.48125 12.0031 3.675 12.1406 3.71875 12.2062L4.49062 13.1937L6.525 14.4969L3.80625 11.5281ZM12.1938 11.5281L10.8687 12.975C11.0687 12.8781 11.2219 12.7094 11.4 12.5875C11.475 12.5437 11.5156 12.5281 11.5344 12.5281C11.6 12.5281 11.3656 12.75 11.2937 12.85C11 13.1562 10.7937 13.5687 10.4 13.7594L10.9906 12.9937C10.9188 13.0344 10.8031 13.0937 10.7344 13.1219L9.475 14.4969L11.8031 13.0094C11.9719 12.8 11.8625 12.8344 11.625 12.9812L11.2688 13.1687C11.625 12.7406 12.2313 12.2844 12.5188 12.0562C12.8063 11.8281 13.0156 11.75 12.775 12.0094L12.3813 12.5094C12.6938 12.2719 12.4094 12.6312 12.2406 12.6812C12.2188 12.7125 12.1969 12.7437 12.1719 12.7719L13.875 11.6812L12.1938 11.5281ZM7.375 12.0562V13.4125H6.95625V12.475C6.8 12.4312 6.63125 12.5281 6.47813 12.4656C6.35938 12.375 6.50938 12.2531 6.61875 12.2812C6.72188 12.2781 6.85625 12.2875 6.90938 12.1812C7.04688 12.0406 7.20937 12.0437 7.375 12.0562ZM8.28125 12.0719C8.65938 12.1094 9.0375 12.0906 9.425 12.0906C9.47188 12.1844 9.45 12.3344 9.32187 12.3375C9.08125 12.3469 8.66562 12.2875 8.5125 12.3562C8.25625 12.6844 8.69062 12.475 8.86875 12.5187C9.0875 12.5531 9.3375 12.6094 9.46562 12.8062C9.53125 12.9031 9.55 13.0344 9.4875 13.1406C9.30625 13.3531 8.95625 13.5 8.69687 13.4812C8.46875 13.4625 8.20938 13.4469 8.05313 13.2594C7.85313 12.9281 8.38125 13.05 8.43437 13.1594C8.62187 13.325 9.06875 13.2187 9.08125 13.0125C9.1 12.8812 9.01563 12.8156 8.86563 12.7687C8.71563 12.7219 8.47187 12.8 8.325 12.825C8.17812 12.85 8.025 12.8406 8.04375 12.6875C8.06875 12.5562 8.12813 12.4344 8.12813 12.2969C8.13125 12.2031 8.18125 12.0781 8.28125 12.0719ZM12.4531 12.2281C12.4469 12.2219 12.2344 12.4094 12.1438 12.4812L11.65 12.8906C11.9812 12.6875 12.2531 12.5156 12.4531 12.2281ZM4.73438 12.6719C4.80938 12.6719 4.96875 12.8156 5.02812 12.8906L5.84375 13.8625C5.60313 13.7969 5.42812 13.6406 5.29375 13.4344C5.09062 13.2062 4.94062 12.9156 4.63125 12.8219C4.35 12.6656 4.46875 12.6219 4.69688 12.7531C4.6875 12.6937 4.70312 12.6719 4.73438 12.6719Z" fill="black"/>
</svg>
