<svg width="32" height="32" viewBox="0 0 32 32" fill="none" xmlns="http://www.w3.org/2000/svg">
<path d="M16 2.32143L4.8685 21.4908H27.1315L16 2.32143ZM14.3846 3.11187L4.5 10.2646V20.1339L14.3846 3.11187ZM17.6152 3.11187L27.5 20.134V10.2645L17.6152 3.11187ZM9.333 8.73812V10.0997L8.80262 10.7047V9.64587C8.62937 9.84837 8.44688 10.0438 8.27856 10.2499C8.49956 10.2682 8.43381 10.5892 8.4165 10.7344C8.30738 11.3304 7.90688 11.8328 7.57875 12.2837C7.45731 12.4427 7.33231 12.6009 7.20325 12.7529C6.91262 12.9654 6.67262 13.0273 6.52981 12.6615C6.54819 12.1736 6.76981 11.7102 7.03269 11.3511L7.36319 10.8562C7.36019 11.0101 7.36944 11.1668 7.35869 11.319C7.21244 11.5907 6.93581 11.9102 6.99881 12.232C7.48381 12.2866 7.76256 11.5531 7.90644 11.1957C7.95844 11.0232 8.03819 10.8546 7.81781 10.8561V10.4021L9.333 8.73812ZM22.5911 8.81375L25.3944 12.2177V12.6716L23.5004 10.4022V10.9317L23.1217 10.4779C23.112 10.2185 23.0327 9.95431 22.9701 9.72143C22.8539 9.53793 22.7226 9.36493 22.5914 9.19206L22.5911 8.81375ZM16.0044 12.7412C16.5275 12.7412 16.9252 12.8368 17.1974 13.0279C17.4696 13.2171 17.6057 13.4951 17.6057 13.8619C17.6057 14.1072 17.5381 14.3118 17.403 14.4759C17.2698 14.64 17.072 14.7616 16.8094 14.8407C17.1027 14.9219 17.3237 15.0542 17.4725 15.2376C17.623 15.419 17.6983 15.6486 17.6984 15.9266C17.6984 16.3552 17.5555 16.6795 17.2698 16.8997C16.986 17.1178 16.5642 17.2269 16.0044 17.2268C15.4426 17.2268 15.0179 17.1178 14.7303 16.8997C14.4445 16.6796 14.3016 16.3552 14.3016 15.9266C14.3016 15.6486 14.376 15.419 14.5247 15.2376C14.6752 15.0541 14.8972 14.9218 15.1907 14.8407C14.9282 14.7616 14.7303 14.64 14.5971 14.4759C14.464 14.3118 14.3973 14.1072 14.3973 13.862C14.3973 13.4972 14.5335 13.2192 14.8056 13.0281C15.0778 12.8369 15.4774 12.7414 16.0044 12.7414V12.7412ZM16.0044 13.442C15.8268 13.442 15.6898 13.4884 15.5931 13.5811C15.4985 13.6737 15.4513 13.805 15.4513 13.9748C15.4513 14.1467 15.4985 14.2789 15.5931 14.3716C15.6898 14.4643 15.8268 14.5106 16.0044 14.5106C16.1781 14.5106 16.3123 14.4643 16.4069 14.3716C16.5015 14.2789 16.5487 14.1467 16.5487 13.9749C16.5487 13.803 16.5015 13.6718 16.4069 13.5811C16.3123 13.4884 16.1781 13.442 16.0044 13.442ZM16.0044 15.2084C15.7958 15.2084 15.6356 15.2653 15.5238 15.3792C15.4117 15.4932 15.3556 15.6563 15.3556 15.8686C15.3556 16.081 15.4117 16.2441 15.5238 16.358C15.6356 16.47 15.7958 16.526 16.0044 16.526C16.2109 16.526 16.3692 16.47 16.4792 16.3581C16.5892 16.2441 16.6443 16.0809 16.6443 15.8686C16.6443 15.6543 16.5892 15.4912 16.4792 15.3792C16.3692 15.2653 16.211 15.2083 16.0044 15.2083V15.2084ZM5.54375 22.4907L16 30.057L26.4562 22.4907H5.54375ZM14.2575 23.9426H17.6667V24.2452C16.7664 24.6166 16.3179 25.0513 15.9242 25.8337H14.9392C15.3832 24.9711 15.8484 24.7266 16.6061 24.2452H14.2574L14.2575 23.9426Z" fill="#FFA500"/>
</svg>
