<svg width="32" height="32" viewBox="0 0 32 32" fill="none" xmlns="http://www.w3.org/2000/svg">
<path d="M15.5 1.26875L4.52063 8.2875L15.5 8.05V1.26875ZM16.5 1.26875V8.05L27.4813 8.2875L16.5 1.26875ZM19.7125 4.95C20.0937 5.16875 20.225 5.4 20.6562 5.2125C21.325 5.2625 22.05 5.575 22.3813 6.19375C22.675 6.475 22.475 6.98125 22.0562 6.98125C21.45 6.9875 20.825 6.6 21.1437 6.4625C21.4375 6.3375 22.0625 6.51875 21.7687 6.11875C21.5437 5.8375 21.0813 5.63125 20.75 5.75C20.65 6.175 20.1625 6 20 5.70625C19.8563 5.34375 19.4313 5.19375 19.0625 5.2125C18.6813 5.38125 19.1625 5.7625 19.3937 5.83125C19.8875 5.96875 19.4063 6.3 19.1375 6.15C18.875 6 18.2 5.55 18.2938 5.00625C18.6563 4.54438 19.2812 4.7175 19.7125 4.95ZM12.9312 4.73125C13.275 4.7625 13.7 4.91875 13.5688 5.35C13.3 5.7875 12.9563 6.16875 12.4375 6.275C12.0312 6.4875 11.5062 6.55 11.0875 6.39375C10.8562 6.25 10.2437 5.8125 10.1562 6.18125C10.025 7.10625 10.2 7 9.4625 7.29375V5.76875C10.0812 5.525 10.7812 5.4875 11.3562 5.85C11.8562 6.1125 12.5687 5.94375 12.8687 5.49375C12.9562 5.0875 12.3625 5.20625 12.1062 5.28125C11.9375 4.76875 12.6 4.8125 12.9312 4.73125ZM15.1187 9.05625L3.46187 9.3125L7.9125 21.3688L15.1187 9.05625ZM16.8813 9.05625L24.0875 21.3688L28.5375 9.3125L16.8813 9.05625ZM16 9.525L8.68125 22.0375H23.3188L16 9.525ZM24.3312 10.8438C25.2 11.3625 25.675 12.4813 25.7125 13.5313C25.6312 14.3813 25.6688 14.7688 24.7625 14.8688C23.8563 14.9688 23.2688 13.6688 22.9062 12.8313C22.6937 12.2125 22.5438 11.3313 23.0125 10.875C23.3938 10.575 23.95 10.6188 24.3312 10.8438ZM10.35 11.85C10.4813 12.1 10.3188 12.5625 10.05 12.6063C9.74375 12.65 9.8125 12.025 9.4625 11.8813C9.03125 11.7375 8.6125 12.2313 8.525 12.6063C9.175 12.3563 9.79375 13.05 9.79375 13.6688C9.76875 14.4 9.3 15.2188 8.5625 15.425H8.2125C7.41875 15.3813 7.06875 14.4375 7.325 13.7625C7.6 12.775 8 11.6438 9.025 11.225C9.55625 10.9813 10.2125 11.425 10.35 11.85ZM23.7188 11.325C23.275 11.3188 23.4438 11.95 23.5125 12.2313C23.7313 12.95 23.9688 13.8938 24.6938 14.1063C25.1188 14.0313 24.9687 13.3063 24.925 13.075C24.6312 12.3938 24.4812 11.6188 23.7188 11.325ZM3.25 11.625V22.45L7.11875 22.0938L3.25 11.625ZM28.75 11.625L24.8813 22.0938L28.75 22.45V11.625ZM21.3813 11.6688L23.1625 15.6375L22.5375 15.9125L21.2875 13.2063C20.9063 13.3938 20.475 13.7625 20.375 13.1188C20.2938 12.875 20.9063 12.8 20.8813 12.375C20.8625 11.9438 21.0188 11.6125 21.3813 11.6688ZM8.13125 13.3813C7.98125 13.7 7.875 14.025 7.9625 14.375C8.06875 14.925 8.80625 14.775 8.9375 14.325C9.10625 14.0125 9.18125 13.5938 8.90625 13.3438C8.65 13.1313 8.35 13.1688 8.13125 13.3813ZM28.6562 15.9813C28.65 17.1438 28.725 18.4313 28.05 19.4375C27.9937 19.5125 27.9125 19.5563 27.8188 19.5938C27.4563 19.3375 27.6312 18.8875 27.8937 18.625C27.9562 19.0813 28.2375 18.4438 28.3062 18.275C28.3875 18.075 28.5312 17.1688 28.2437 17.6375C28.2875 17.8875 27.8188 18.4563 27.6625 18.1438C27.35 17.2438 27.6625 16.2375 28.1 15.425C28.4563 15.0375 28.7188 15.7 28.6562 15.9813ZM3.74563 15.3438C3.7825 15.35 3.82937 15.4063 3.90062 15.5688V19.3875C3.44437 18.95 3.62125 18.2625 3.6225 17.7375C3.6225 17.2125 3.72563 16.7188 3.5425 16.2875C3.25375 16.1813 3.18062 15.225 3.34437 15.4938C3.62 15.7938 3.63563 15.325 3.74563 15.3438ZM14.9187 15.8188C15.425 16.1 15.7812 16.7188 15.5938 17.2938C15.4625 18.2438 13.9063 18.6125 13.6938 19.15C13.6188 19.3375 15.2813 19.25 15.5813 19.25C15.6125 19.5 15.675 19.9188 15.3438 19.9813C14.4375 19.9063 13.475 19.9438 12.525 19.9438C12.55 19.2438 12.9875 18.6125 13.5875 18.2688C14.0187 17.9625 14.55 17.6875 14.7188 17.15C14.8312 16.8688 14.6812 16.5688 14.4312 16.4313C14.1687 16.25 13.7437 16.2875 13.6062 16.6C13.4812 16.8375 13.3313 17.1688 13.0625 17.2C12.8812 17.225 12.5 17.2313 12.6125 16.8938C12.7 16.5438 12.825 16.175 13.125 15.9438C13.675 15.55 14.3687 15.525 14.9187 15.8188ZM18.25 15.7313C18.675 15.8688 19 16.225 19.1437 16.6438C19.525 17.5625 19.4875 18.7125 18.8687 19.5125C18.5875 19.8125 18.2312 20.0813 17.8062 20.0813C17.025 20.075 16.4063 19.3875 16.2563 18.6563C16.0625 17.8188 16.1438 16.8625 16.6875 16.1688C17.1125 15.6938 17.6875 15.525 18.25 15.7313ZM28.0063 16.2375C27.9063 16.6063 27.8 17.075 27.9625 17.4438C28.2812 17.3188 28.3 16.8438 28.375 16.5375C28.4312 16.1563 28.1563 15.75 28.0063 16.2375ZM16.9937 17.5563C17.0312 18.2125 17.1 18.9813 17.6 19.3188C17.9063 19.4313 18.2063 19.1813 18.2938 18.9C18.4125 18.5063 18.4375 18.0938 18.4438 17.6875C18.4313 17.2438 18.35 16.75 18.025 16.4313C17.2625 16.1563 17.0687 17.1125 16.9937 17.5563ZM27.125 16.675V20.5L26.85 20.9188V18.275C26.5625 18.7438 26.2812 18.8438 26.4688 18.2188C26.85 17.775 26.7688 17.1313 27.125 16.675ZM5.24062 17.4375C5.29062 17.6625 5.56062 18.55 5.36812 18.3625C5.245 18.2813 5.14188 18.0563 5.155 17.9813C5.05813 17.7938 4.97 17.6 4.89187 17.4063C4.7075 17.6563 4.64437 17.925 4.69562 18.2438C4.70812 18.1438 4.76937 18.1 4.9075 18.2C5.3975 18.9875 5.66812 20.0188 5.36312 20.9188L5.22437 20.9875C4.57687 20.625 4.51188 19.775 4.385 19.1125C4.28813 18.3438 4.33562 17.5688 4.52875 16.8188C4.85375 16.5813 5.10125 17.1563 5.24062 17.4375ZM4.8 18.7C4.54625 18.9938 4.65875 19.5 4.77625 19.85C4.84562 20.1938 5.20875 20.4875 5.155 19.95C5.19813 19.2563 5.00938 19.1563 4.8 18.7ZM8.95 23.0375L16 30.7313L23.05 23.0375H8.95ZM7.6125 23.0563L4.2475 23.3625L8.2625 25.9313C8.1 25.7625 7.95625 25.575 7.81875 25.3813C7.49375 24.95 7.1625 24.5313 6.6375 24.3438C6.09062 23.9375 6.375 24.0125 6.81875 24.1813C6.75625 24.0688 6.775 24.0188 6.825 24.0188C6.9625 24.0063 7.35 24.2813 7.4375 24.4125L8.98125 26.3875L13.05 28.9938L7.6125 23.0563ZM24.3875 23.0563L21.7375 25.95C22.1375 25.7563 22.4437 25.4188 22.8 25.175C22.95 25.0875 23.0313 25.0563 23.0688 25.0563C23.2 25.0563 22.7312 25.5 22.5875 25.7C22 26.3125 21.5875 27.1375 20.8 27.5188L21.9813 25.9875C21.8375 26.0688 21.6063 26.1875 21.4688 26.2438L18.95 28.9938L23.6063 26.0188C23.9438 25.6 23.725 25.6688 23.25 25.9625L22.5375 26.3375C23.25 25.4813 24.4625 24.5688 25.0375 24.1125C25.6125 23.6563 26.0312 23.5 25.55 24.0188L24.7625 25.0188C25.3875 24.5438 24.8188 25.2625 24.4813 25.3625C24.4375 25.425 24.3938 25.4875 24.3438 25.5438L27.75 23.3625L24.3875 23.0563ZM14.75 24.1125V26.825H13.9125V24.95C13.6 24.8625 13.2625 25.0563 12.9563 24.9313C12.7188 24.75 13.0188 24.5063 13.2375 24.5625C13.4438 24.5563 13.7125 24.575 13.8188 24.3625C14.0938 24.0813 14.4187 24.0875 14.75 24.1125ZM16.5625 24.1438C17.3188 24.2188 18.075 24.1813 18.85 24.1813C18.9438 24.3688 18.9 24.6688 18.6437 24.675C18.1625 24.6938 17.3312 24.575 17.025 24.7125C16.5125 25.3688 17.3812 24.95 17.7375 25.0375C18.175 25.1063 18.675 25.2188 18.9312 25.6125C19.0625 25.8063 19.1 26.0688 18.975 26.2813C18.6125 26.7063 17.9125 27 17.3937 26.9625C16.9375 26.925 16.4188 26.8938 16.1063 26.5188C15.7063 25.8563 16.7625 26.1 16.8687 26.3188C17.2437 26.65 18.1375 26.4375 18.1625 26.025C18.2 25.7625 18.0313 25.6313 17.7313 25.5375C17.4313 25.4438 16.9437 25.6 16.65 25.65C16.3562 25.7 16.05 25.6813 16.0875 25.375C16.1375 25.1125 16.2563 24.8688 16.2563 24.5938C16.2625 24.4063 16.3625 24.1563 16.5625 24.1438ZM24.9062 24.4563C24.8937 24.4438 24.4688 24.8188 24.2875 24.9625L23.3 25.7813C23.9625 25.375 24.5062 25.0313 24.9062 24.4563ZM9.46875 25.3438C9.61875 25.3438 9.9375 25.6313 10.0562 25.7813L11.6875 27.725C11.2063 27.5938 10.8562 27.2813 10.5875 26.8688C10.1812 26.4125 9.88125 25.8313 9.2625 25.6438C8.7 25.3313 8.9375 25.2438 9.39375 25.5063C9.375 25.3875 9.40625 25.3438 9.46875 25.3438Z" fill="#FFA500"/>
</svg>
