<svg width="32" height="32" viewBox="0 0 32 32" fill="none" xmlns="http://www.w3.org/2000/svg">
<path d="M14.6944 12.265L15.7615 10.4236V12.265H14.6944ZM30.4344 28.5H1.56561L16 3.5L30.4344 28.5ZM8.01993 25.0729L10.5957 23.639L10.1768 22.8843L6.44561 24.9657L6.78674 25.5786C6.83936 25.5535 6.89488 25.535 6.95205 25.5235C7.06593 25.494 7.1852 25.4922 7.29993 25.5182C7.4545 25.5593 7.59279 25.6468 7.69618 25.7688C7.81328 25.9138 7.91923 26.0674 8.01311 26.2284L8.51274 25.9499L8.01993 25.0729ZM17.0671 12.265H16.5834V9.59412H15.64L14.0687 12.1888V12.9231H15.7607V13.8431H16.5834V12.9231H17.0671V12.2657V12.265ZM25.2933 25.5431C25.5776 25.046 25.5904 24.5932 25.3318 24.1847C25.196 23.9709 24.9736 23.7678 24.6646 23.5756L24.2594 24.2843C24.4159 24.3717 24.5544 24.4879 24.6677 24.6269C24.7874 24.8015 24.7838 24.9997 24.6571 25.2216C24.6213 25.2942 24.5694 25.3576 24.5053 25.4069C24.4412 25.4562 24.3666 25.4902 24.2873 25.5061C24.1256 25.5322 23.96 25.4989 23.8209 25.4126C23.6222 25.2949 23.4777 25.1038 23.4186 24.8805C23.3466 24.5687 23.2987 24.2517 23.2752 23.9326C23.2204 23.3872 23.0992 22.9917 22.9115 22.7462C22.7464 22.5065 22.5311 22.3057 22.2806 22.1576L20.8256 24.7016L21.4677 25.0691L22.3945 23.4496C22.4446 23.5386 22.4801 23.6352 22.4994 23.7356C22.519 23.8362 22.5411 24.0151 22.5658 24.2722L22.6058 24.6828C22.6232 24.9568 22.6804 25.2268 22.7756 25.4842C22.8915 25.7665 23.0999 26.0009 23.3666 26.1491C23.7248 26.3539 24.079 26.4025 24.4292 26.2948C24.7793 26.187 25.0671 25.9367 25.2926 25.5439L25.2933 25.5431Z" fill="#FFA500"/>
</svg>
