<svg width="16" height="16" viewBox="0 0 16 16" fill="none" xmlns="http://www.w3.org/2000/svg">
<g clip-path="url(#clip0_165_8)">
<path d="M11.7339 7.85134L8.29698 9.44941L8.30364 15.1801L14.9066 8.32331L12.188 7.64175L11.7339 7.85134ZM11.3359 11.2459L11.15 11.7052L9.63114 11.4254L9.78761 11.0244C9.93561 10.915 10.0766 10.7965 10.2098 10.6695C10.3953 10.4997 10.5683 10.3168 10.7275 10.1221C10.8707 9.94365 11.0023 9.7562 11.1214 9.56087C11.2368 9.38278 11.3363 9.19487 11.4187 8.99931L11.8584 9.07775C11.6631 9.54304 11.3469 10.0059 10.9096 10.4662C10.6326 10.7504 10.4175 10.9445 10.2644 11.0486L11.3359 11.2459ZM3.80011 7.63544L1.15292 8.31553L7.70233 15.1875V9.44938L4.26651 7.85134L3.80011 7.63544ZM4.39845 9.22456C4.53273 9.19998 4.67084 9.20634 4.80228 9.24317C4.93373 9.28001 5.05504 9.34634 5.15698 9.43713C5.29847 9.56372 5.41713 9.71369 5.50779 9.8805L5.09901 9.96412C5.05564 9.87876 4.99879 9.80095 4.93064 9.73369C4.82262 9.6321 4.70531 9.59197 4.5787 9.61328L4.56348 9.61625C4.52631 9.62208 4.49151 9.63819 4.46301 9.66275C4.43451 9.68731 4.41343 9.71935 4.40217 9.75525C4.37542 9.82956 4.39473 9.92881 4.45829 10.0481C4.54329 10.2064 4.6559 10.3005 4.79611 10.3302C4.88495 10.3443 4.97562 10.3421 5.0637 10.3238L5.12204 10.3131L5.30301 10.6513C5.16972 10.681 5.08399 10.7152 5.04583 10.7538C4.97895 10.8193 4.98342 10.9227 5.05923 11.0642C5.10264 11.1498 5.16838 11.2221 5.24951 11.2734C5.31773 11.3177 5.40008 11.3348 5.48029 11.3213L5.49329 11.3188C5.5924 11.2987 5.6453 11.2491 5.65201 11.1701C5.66018 11.0897 5.63155 10.9906 5.56614 10.8728L5.95301 10.7933C6.00982 10.9046 6.05288 11.0224 6.08123 11.1441C6.098 11.242 6.09112 11.3425 6.06117 11.4373C6.0373 11.5045 5.99428 11.5633 5.93742 11.6064C5.86238 11.6583 5.77668 11.6929 5.68658 11.7075L5.64939 11.7142C5.46283 11.746 5.27099 11.7163 5.1027 11.6298C4.91262 11.5334 4.75802 11.3792 4.6612 11.1894C4.58564 11.0479 4.55851 10.921 4.57983 10.8085C4.5878 10.7495 4.61558 10.695 4.65861 10.6539H4.65639C4.61797 10.6603 4.54464 10.6343 4.43639 10.5758C4.26257 10.4776 4.12203 10.3297 4.03276 10.1511C3.92349 9.94765 3.8893 9.756 3.9302 9.57613C3.97108 9.39625 4.11353 9.28167 4.35758 9.23238L4.39845 9.22456ZM0.849701 7.77703L4.24908 4.14237C4.2639 4.14086 4.27884 4.14086 4.29367 4.14237H4.29848C4.3639 4.14956 4.3935 4.18821 4.38729 4.25831C4.37274 4.34943 4.33752 4.43602 4.28436 4.51144C4.20362 4.63739 4.1006 4.74758 3.98036 4.83659C3.89886 4.8978 3.74215 4.99691 3.51023 5.13391C3.24365 5.29026 3.04 5.44411 2.89929 5.59547C2.76454 5.73396 2.64401 5.88561 2.53951 6.04816L3.56786 6.16559L3.82354 5.7605L3.16833 5.68619C3.21444 5.6422 3.26416 5.60216 3.31698 5.5665C3.36654 5.53306 3.4545 5.47968 3.58086 5.40634L3.78154 5.28925C3.9234 5.20929 4.05828 5.11755 4.18476 5.015C4.33772 4.88611 4.46962 4.73414 4.5757 4.56456C4.7182 4.3386 4.78585 4.15155 4.77864 4.00341C4.7727 3.88 4.71286 3.80234 4.60101 3.76887L7.0947 1.10759L3.90417 6.71934L3.72579 7.03372L0.849701 7.77703ZM12.3259 5.52784C12.2464 5.41414 12.2072 5.32544 12.2085 5.26175C12.2085 5.19822 12.2456 5.16178 12.32 5.154H12.3378C12.4153 5.15432 12.4908 5.17887 12.5537 5.22422C12.6505 5.29185 12.7336 5.37723 12.7986 5.47581C12.8754 5.58581 12.9141 5.67328 12.9145 5.73822C12.9145 5.80363 12.8774 5.84003 12.8053 5.84969H12.7867C12.7082 5.84881 12.632 5.82276 12.5693 5.77537C12.4735 5.70919 12.3909 5.62561 12.3259 5.52897V5.52784ZM8.90683 1.10534L11.5302 3.90641H11.493C11.4812 3.90641 11.4626 3.90641 11.4473 3.90975C11.2843 3.92833 11.1976 3.99981 11.1872 4.12419C11.1768 4.24856 11.2292 4.39176 11.3444 4.55378C11.4037 4.63644 11.4704 4.71357 11.5436 4.78422C11.6369 4.8728 11.7439 4.9456 11.8606 4.99975C11.8165 5.05996 11.8092 5.14308 11.8387 5.24913C11.8773 5.37371 11.9366 5.49092 12.0141 5.59587C12.1411 5.77949 12.3027 5.93664 12.4898 6.05856C12.6585 6.16831 12.8259 6.21972 12.9919 6.21278C13.0087 6.21278 13.0256 6.21143 13.0424 6.20872C13.2253 6.18814 13.3214 6.10612 13.3308 5.96269C13.3337 5.91169 13.3288 5.86056 13.3163 5.81103L15.1504 7.76997L12.2887 7.05306L12.0981 6.71859L8.90683 1.10534ZM11.9762 4.38431L12.0528 4.46609C12.0669 4.48391 12.081 4.50325 12.0951 4.52184C12.1516 4.60284 12.1802 4.6705 12.1802 4.72587C12.1802 4.78122 12.1479 4.81281 12.0825 4.82025H12.0665C11.9983 4.82045 11.9319 4.79912 11.8766 4.75931C11.8003 4.70852 11.7347 4.64339 11.6833 4.56753C11.6216 4.47909 11.5915 4.40809 11.5934 4.35459C11.5953 4.30106 11.6283 4.27022 11.693 4.26281H11.7094C11.7765 4.26225 11.8422 4.28279 11.897 4.32153C11.9251 4.34018 11.9516 4.36119 11.9762 4.38434L11.9762 4.38431ZM7.99961 0.8125L4.29551 7.21956L7.99964 8.93987L11.706 7.21956L7.99961 0.8125ZM7.96242 7.32697C7.59723 7.32697 7.34119 7.19913 7.19429 6.94344C7.04736 6.68775 6.97389 6.32329 6.97389 5.85006C6.97389 5.37685 7.04735 5.01178 7.19426 4.75484C7.34118 4.49791 7.59724 4.36932 7.96245 4.36909C8.32766 4.36909 8.58372 4.49755 8.73064 4.75447C8.87756 5.01139 8.95101 5.37646 8.95101 5.84969C8.95101 6.32292 8.87756 6.68737 8.73064 6.94306C8.58372 7.19875 8.32766 7.32672 7.96245 7.32697H7.96242ZM8.29173 5.083C8.34375 5.249 8.36976 5.50469 8.36976 5.85006C8.36976 6.17958 8.34375 6.43168 8.29173 6.60634C8.23969 6.78101 8.12993 6.86773 7.96245 6.8665C7.79495 6.8665 7.6842 6.77978 7.6302 6.60634C7.5762 6.43291 7.54919 6.18082 7.54917 5.85009C7.54917 5.5047 7.57618 5.249 7.6302 5.083C7.68422 4.917 7.79497 4.834 7.96245 4.834C8.12943 4.83375 8.23894 4.91662 8.29098 5.08262L8.29173 5.083Z" fill="black"/>
</g>
<defs>
<clipPath id="clip0_165_8">
<rect width="16" height="16" fill="white"/>
</clipPath>
</defs>
</svg>
