<svg width="32" height="32" viewBox="0 0 32 32" fill="none" xmlns="http://www.w3.org/2000/svg">
<path d="M28.1356 11.3346L23.7303 5.26812L16.6018 2.95781V8.74856L22.6258 13.1255L28.1356 11.3346ZM22.4193 9.55862C22.3828 9.70669 22.3192 9.84669 22.2316 9.9715C22.1453 10.0922 22.0341 10.1929 21.9055 10.2668C21.777 10.3408 21.634 10.3862 21.4863 10.4001C21.1718 10.4383 20.8441 10.333 20.5033 10.0841C20.1624 9.83514 19.9624 9.55516 19.9033 9.24412C19.872 9.09945 19.8721 8.94975 19.9037 8.80512C19.9352 8.66049 19.9973 8.52431 20.0859 8.40575C20.1783 8.28454 20.2923 8.18144 20.4221 8.10162C20.5646 8.00971 20.7527 7.97691 20.9862 8.00325C20.8888 7.8009 20.8515 7.57484 20.8789 7.35193C20.9093 7.12962 20.996 6.91876 21.1308 6.73931C21.2296 6.60028 21.3568 6.48386 21.5041 6.39776C21.6514 6.31166 21.8152 6.25787 21.9849 6.23993C22.3446 6.19377 22.715 6.30981 23.0961 6.58806C23.4771 6.86627 23.6923 7.17777 23.7414 7.52256C23.7675 7.6889 23.7598 7.85878 23.7187 8.02206C23.6776 8.18533 23.604 8.33864 23.5023 8.47281C23.3721 8.65603 23.1967 8.8024 22.9932 8.89762C22.7948 8.99009 22.5719 9.01621 22.3576 8.97212C22.4425 9.19966 22.463 9.39516 22.4193 9.55862ZM21.7486 9.04068C21.7575 9.10906 21.7526 9.17852 21.7342 9.24496C21.7157 9.3114 21.6842 9.37347 21.6413 9.4275C21.5756 9.50984 21.4878 9.57184 21.3883 9.60628C21.2887 9.64073 21.1814 9.64621 21.0788 9.62209C20.9762 9.59797 20.8826 9.54524 20.8088 9.47002C20.7351 9.3948 20.6841 9.30019 20.662 9.19718C20.6543 9.12625 20.6609 9.05451 20.6814 8.98617C20.7019 8.91783 20.7358 8.85427 20.7812 8.79925C20.8193 8.74184 20.8683 8.69252 20.9255 8.65414C20.9826 8.61576 21.0468 8.58908 21.1144 8.57562C21.1858 8.56536 21.2586 8.5702 21.3281 8.58985C21.3975 8.6095 21.4621 8.64351 21.5176 8.68968C21.5791 8.72868 21.6318 8.78013 21.6722 8.84071C21.7126 8.90129 21.7399 8.96966 21.7524 9.04143L21.7486 9.04068ZM22.3449 8.30506C22.1824 8.32027 22.0199 8.27568 21.8879 8.17965C21.7559 8.08362 21.6634 7.94275 21.6279 7.78343C21.605 7.62889 21.6572 7.46443 21.7844 7.29006C21.8787 7.14019 22.028 7.03319 22.2003 6.99193C22.3642 6.97579 22.5284 7.02058 22.6615 7.11776C22.7945 7.21494 22.8872 7.3577 22.9217 7.51881C22.9354 7.69469 22.8801 7.86901 22.7674 8.00475C22.6447 8.17966 22.5061 8.27979 22.3516 8.30512L22.3449 8.30506ZM15.4094 8.74856V2.95781L8.28088 5.26812L3.87562 11.3346L9.38538 13.1232L15.4094 8.74856ZM8.36812 7.38618L10.7366 5.72868C10.8981 5.96647 11.0059 6.23655 11.0526 6.52018C11.1171 6.81831 11.059 7.22275 10.8782 7.7335C10.7644 8.02862 10.6737 8.33211 10.6069 8.64125C10.5655 8.8655 10.6139 9.09703 10.7417 9.28587C10.8297 9.42143 10.9636 9.52068 11.1189 9.56537C11.196 9.58404 11.2763 9.58488 11.3538 9.56783C11.4313 9.55079 11.5039 9.5163 11.566 9.467C11.7727 9.32241 11.8594 9.14679 11.8261 8.94012C11.7825 8.76815 11.7067 8.60602 11.6026 8.46237L12.2636 8.00031C12.4584 8.30239 12.5714 8.57739 12.6027 8.82531C12.6628 9.29731 12.4611 9.69479 11.9976 10.0177C11.6314 10.2741 11.2691 10.3765 10.9109 10.3248C10.5527 10.2731 10.2566 10.0806 10.0226 9.74718C9.84658 9.50254 9.75907 9.20529 9.77444 8.90431C9.80063 8.63439 9.86616 8.36976 9.96894 8.11881L10.1061 7.735C10.192 7.495 10.2474 7.32583 10.2723 7.2275C10.2971 7.1302 10.3062 7.02955 10.2991 6.92937L8.78913 7.98612L8.36812 7.38618ZM12.4119 20.8494H19.5993L21.8186 14.0138L16.0056 9.78893L10.1925 14.0139L12.4119 20.8494ZM17.991 14.9074C17.9385 14.8474 17.8729 14.8001 17.7992 14.7694C17.7256 14.7386 17.6458 14.7252 17.5662 14.7301C17.3138 14.7301 17.1421 14.8242 17.0512 15.0126C16.9872 15.1789 16.9556 15.356 16.9581 15.5342H16.1546C16.168 15.175 16.2331 14.8849 16.3499 14.6637C16.5715 14.2424 16.965 14.0317 17.5304 14.0317C17.9776 14.0317 18.333 14.156 18.5969 14.4044C18.8607 14.6528 18.9906 14.9785 18.9867 15.3814C18.9904 15.6827 18.8916 15.9763 18.7064 16.2139C18.5325 16.4219 18.3291 16.6034 18.1028 16.7527L17.7704 16.9882C17.5622 17.1373 17.4199 17.2441 17.3434 17.3087C17.2668 17.3745 17.2014 17.4523 17.1496 17.539H18.9926V18.2693H16.1047C16.1089 17.9819 16.1755 17.6989 16.3 17.4399C16.4182 17.1586 16.6977 16.8605 17.1384 16.5455C17.4016 16.369 17.6507 16.1724 17.8837 15.9575C18.0461 15.7976 18.1392 15.5803 18.1431 15.3524C18.1479 15.1903 18.0939 15.032 17.991 14.9067V14.9074ZM13.0156 14.7942C13.1994 14.7906 13.3828 14.7732 13.5641 14.742C13.7194 14.7108 13.8614 14.6328 13.971 14.5184C14.0484 14.4319 14.1041 14.3282 14.1335 14.2158C14.1512 14.161 14.162 14.1041 14.1655 14.0466H14.8586V18.2679H14.0083V15.3583H13.0156V14.7934L13.0156 14.7942ZM12.2793 22.0419L8.87712 26.7319L16.0056 29.0422L23.1341 26.7319L19.7319 22.0419H12.2793ZM17.1086 27.2789C16.8736 27.58 16.5087 27.7302 16.0138 27.7297C15.4821 27.7297 15.0901 27.5074 14.8378 27.0627C14.6415 26.715 14.5434 26.2678 14.5434 25.7212C14.5402 25.4586 14.5539 25.1959 14.5844 24.935C14.6188 24.6212 14.7148 24.3173 14.8669 24.0407C14.983 23.8413 15.1453 23.6726 15.3401 23.5488C15.5504 23.4204 15.7935 23.3557 16.0399 23.3625C16.4319 23.3625 16.7444 23.4619 16.9774 23.6606C17.0932 23.7612 17.1876 23.884 17.2551 24.0217C17.3226 24.1595 17.3617 24.3093 17.3702 24.4625H16.5474C16.5431 24.382 16.516 24.3045 16.4691 24.2389C16.4246 24.1736 16.364 24.121 16.293 24.0863C16.2221 24.0515 16.1433 24.0358 16.0644 24.0407C15.7947 24.0407 15.6027 24.192 15.4884 24.4946C15.4128 24.7342 15.3697 24.9828 15.3602 25.2339C15.456 25.117 15.5787 25.0251 15.7179 24.9663C15.9534 24.8778 16.2093 24.8588 16.4552 24.9116C16.7011 24.9645 16.9266 25.087 17.1048 25.2644C17.3486 25.5295 17.4778 25.8801 17.4641 26.24C17.4686 26.6161 17.3442 26.9825 17.1116 27.2781L17.1086 27.2789ZM16.4379 25.7406C16.5581 25.8718 16.6182 26.0606 16.6182 26.3071C16.6269 26.4998 16.571 26.69 16.4594 26.8474C16.4092 26.9148 16.3434 26.9689 16.2675 27.0051C16.1917 27.0414 16.1082 27.0586 16.0243 27.0553C15.9353 27.0572 15.8472 27.0387 15.7665 27.0014C15.6858 26.9641 15.6146 26.9089 15.5584 26.8399C15.4334 26.6827 15.3699 26.4853 15.3796 26.2847C15.3796 26.0034 15.461 25.7997 15.624 25.6736C15.7299 25.5895 15.8614 25.5443 15.9966 25.5454C16.0806 25.5435 16.164 25.5599 16.2409 25.5935C16.3179 25.627 16.3866 25.677 16.4423 25.7399L16.4379 25.7406ZM23.8846 18.7284L25.627 19.2501L25.3289 20.2599L23.8846 18.7284ZM22.9902 14.2568L20.6896 21.3368L24.0947 26.0239L28.5 19.9604V12.4689L22.9902 14.2568ZM27.1197 19.6913L26.2493 19.4312L25.7708 21.0321L25.0763 20.8249L23.064 18.6047L23.3309 17.7104L25.858 18.4654L25.9944 18.0077L26.6167 18.1934L26.4803 18.6509L27.3508 18.911L27.1197 19.6913ZM9.00975 14.2568L3.5 12.4682V19.9641L7.90525 26.0276L11.3104 21.3406L9.00975 14.2568ZM4.53375 17.89L7.31063 17.015L7.0125 16.0686L7.55131 15.8986C7.61001 16.0729 7.68177 16.2426 7.766 16.4061C7.84173 16.5446 7.95796 16.6567 8.09912 16.7274C8.20496 16.7753 8.32067 16.7972 8.43669 16.7915C8.4942 16.792 8.55155 16.7852 8.60738 16.7714L8.81531 17.4324L4.79087 18.6994L4.53375 17.89ZM5.68813 21.5522L5.4325 20.7414L8.20938 19.8664L7.91125 18.9199L8.45012 18.7501C8.50891 18.9243 8.58065 19.094 8.66475 19.2576C8.74039 19.3961 8.85664 19.5083 8.99788 19.5788C9.10369 19.6268 9.21946 19.6488 9.3355 19.6429C9.39299 19.6433 9.45032 19.6366 9.50613 19.6227L9.71412 20.2838L5.68813 21.5522Z" fill="#FFA500"/>
</svg>
